<svg xmlns="http://www.w3.org/2000/svg" viewBox="0 0 626 618" class="cursor-pointer text-black dark:text-white">
  <path class="fill-black dark:fill-white" d="M 45.044 54.879 L 277 55.991 L 277.126 99.639 L 89.895 100.166 L 90.504 278.538 L 45.279 278.89 L 45.044 54.879 Z"></path>
  <path class="fill-black dark:fill-white" d="M 337.076 278.909 L 569.032 277.797 L 569.158 234.149 L 381.927 233.622 L 382.536 55.25 L 337.311 54.898 L 337.076 278.909 Z" transform="matrix(-1, 0, 0, -1, 906, 333.806030273441)"></path>
  <path class="fill-black dark:fill-white" d="M 45.072 561.491 L 277.028 560.379 L 277.154 516.731 L 89.923 516.204 L 90.532 337.832 L 45.307 337.48 L 45.072 561.491 Z"></path>
  <path class="fill-black dark:fill-white" d="M 337.104 337.461 L 569.06 338.573 L 569.186 382.221 L 381.955 382.748 L 382.564 561.12 L 337.339 561.472 L 337.104 337.461 Z" transform="matrix(-1, 0, 0, -1, 906, 898.933959960938)"></path>
  <path class="fill-black dark:fill-white" d="M 152.155 305.122 C 152.155 249.623 181.763 198.34 229.827 170.591 C 325.729 115.221 443.835 175.22 460.78 279.362 L 414.828 279.362 C 407.848 250.282 389.227 224.858 362.686 209.534 C 289.102 167.051 197.123 220.155 197.123 305.122 C 197.123 344.555 218.16 380.993 252.311 400.71 C 316.367 437.692 394.364 402.237 413.487 336.384 L 459.667 336.384 C 450.834 379.386 424.035 417.214 385.17 439.653 C 281.608 499.445 152.155 424.705 152.155 305.122 Z"></path>
</svg>