<svg xmlns="http://www.w3.org/2000/svg" viewBox="0 0 256 256" fill="none" class="cursor-pointer text-black dark:text-white">
  <circle class="fill-black dark:fill-white" transform="matrix(0.3027510344982147, 0, 0, 0.28321900963783264, -159.15029907226562, -61.4361686706543)" cx="719.406" cy="1015.742" r="61.152"></circle>
  <circle class="fill-black dark:fill-white" transform="matrix(0.3027510344982147, 0, 0, 0.28321900963783264, -31.775749206542997, -250.29757690429685)" cx="719.406" cy="1015.742" r="61.152"></circle>
  <circle class="fill-black dark:fill-white" cx="123.908" cy="132.045" r="4.414" transform="matrix(0.9999999999999999, 0, 0, 0.9999999999999999, -2.842170943040401e-14, 0)"></circle>
  <path class="fill-black dark:fill-white" d="M 90.227 86.127 L 157.466 86.127 C 164.063 86.127 169.914 89.321 173.557 94.247 L 130.011 124.743 C 128.336 123.42 126.22 122.63 123.92 122.63 C 121.725 122.63 119.698 123.349 118.061 124.565 L 74.35 93.963 C 78.006 89.199 83.758 86.127 90.227 86.127 Z" transform="matrix(0.9999999999999999, 0, 0, 0.9999999999999999, -2.842170943040401e-14, 0)"></path>
  <path class="fill-black dark:fill-white" d="M 177.466 106.127 L 177.466 157.625 C 177.466 168.671 168.512 177.625 157.466 177.625 L 90.227 177.625 C 79.181 177.625 70.227 168.671 70.227 157.625 L 70.227 106.127 C 70.227 103.735 70.647 101.44 71.417 99.314 L 114.539 129.503 C 114.244 130.439 114.085 131.433 114.085 132.466 C 114.086 137.897 118.488 142.3 123.92 142.3 C 129.352 142.3 133.755 137.897 133.755 132.465 C 133.755 131.536 133.626 130.637 133.385 129.784 L 176.398 99.662 C 177.09 101.69 177.466 103.865 177.466 106.127 Z" transform="matrix(0.9999999999999999, 0, 0, 0.9999999999999999, -2.842170943040401e-14, 0)"></path>
  <path class="fill-black dark:fill-white" d="M 6.321 190.252 C 6.477 189.592 6.341 191.611 6.431 192.283 C 6.605 193.585 7.323 194.71 7.909 195.86 C 9.713 199.397 11.781 202.815 13.977 206.12 C 21.684 217.721 28.353 221.542 41.836 221.05 C 77.265 219.756 114.898 204.068 144.471 185.016 C 146.9 183.451 169.763 182.899 176.693 178.507 C 187.971 171.36 185.552 143.988 186.098 131.304 C 186.784 115.363 186.446 95.198 181.498 89.794 C 174.346 81.982 173.272 82.404 161 80.385 C 156.354 79.621 146.924 79.495 142.238 78.988 C 141.598 78.919 122.979 80.064 123.507 78.705 C 125.123 74.551 150.93 71.798 154.687 71.63 C 170.977 70.903 177.815 72.203 189.646 85.03 C 197.889 93.967 201.813 103.57 205.403 114.817 C 207.267 120.657 207.273 142.316 210.44 130.193 C 212.392 122.72 210.708 105.227 209.5 102.55 C 201.229 84.215 196.704 77.687 190.763 72.165 C 185.93 67.673 173.57 60.66 179.493 62.03 C 183.801 63.027 195.046 69.332 197.402 70.937 C 204.267 75.614 211.298 81.175 217.317 88.336 C 220.88 92.574 222.18 95.141 224.435 99.047 C 227.243 103.912 227.615 108.86 228.914 112.791 C 230.717 118.25 242.169 96.437 244.301 91.628 C 245.398 89.153 245.211 91.903 244.25 95.836 C 243.391 99.35 238.7 119.301 237.059 122.614 C 228.995 138.894 226.014 146.93 212.356 160.252 C 157.434 213.823 133.923 219.039 28.756 233.424 C 21.951 234.355 12.272 234.435 8.736 228.546 C 2.8760000000000003 218.786 3.385 202.7 6.321 190.252 Z" transform="matrix(0.9999999999999999, 0, 0, 0.9999999999999999, -2.842170943040401e-14, 0)"></path>
  <path class="fill-black dark:fill-white" d="M 242.361 105.426 C 242.522 104.684 242.207 106.137 242.361 105.426 Z" transform="matrix(0.9999999999999999, 0, 0, 0.9999999999999999, -2.842170943040401e-14, 0)"></path>
  <path class="fill-black dark:fill-white" d="M 237.079 30.27 C 247.426 31.132 246.905 43.874 247.256 50.121 C 247.417 52.985 246.227 83.414 245.668 81.484 C 243.887 75.332 241.874 65.96 239.431 59.965 C 234.722 48.406 218.395 41.328 206.834 41.144 C 165.105 40.481 111.597 79.524 99.414 80.093 C 85.838 80.727 70.928 80.826 64.717 94.581 C 60.395 104.153 61.526 116.364 61.111 135.335 C 60.45 165.52 62.538 177.15 74.333 181.391 C 81.888 184.108 119.977 186.537 124.611 186.537 C 126.162 186.537 127.71 186.589 129.259 186.635 C 130.031 186.658 132.308 186.487 131.575 186.733 C 109.469 194.152 83.185 205.326 62.261 189.212 C 50.441 180.109 44.909 168.481 41.832 153.994 C 41.198 151.01 43.042 134.472 43.473 126.548 C 43.84 119.815 33.042 142.575 34.671 154.382 C 36.473 167.442 41.143 177.441 47.171 185.291 C 49.18 187.907 51.332 190.41 53.54 192.86 C 54.198 193.59 54.872 194.305 55.494 195.065 C 55.887 195.545 57.284 196.451 56.667 196.509 C 53.833 196.774 48.79 195.256 46.142 193.834 C 31.054 185.73 24.043 161.104 22.649 145.772 C 22.155 140.334 23.311 134.662 24.772 129.368 C 27.94 117.89 31.859 111.555 42.803 97.891 C 64.38 70.952 86.079 63.08 127.927 46.129 C 148.359 37.853 204.621 27.567 237.079 30.27 Z" transform="matrix(0.9999999999999999, 0, 0, 0.9999999999999999, -2.842170943040401e-14, 0)"></path>
  <path class="fill-black dark:fill-white" d="M 106.742 104.328 L 165.358 62.608" transform="matrix(0.9999999999999999, 0, 0, 0.9999999999999999, -2.842170943040401e-14, 0)"></path>
</svg>